<svg xmlns="http://www.w3.org/2000/svg" viewBox="0 0 71.87 82.08"><g id="Layer_2" data-name="Layer 2"><g id="Layer_1-2" data-name="Layer 1"><path d="M71.48,61.56A2.94,2.94,0,0,1,68.93,63a2.9,2.9,0,0,1-1.47-.4l-5.14-3,1,3.59a2.93,2.93,0,0,1-2.08,3.6,2.84,2.84,0,0,1-.76.1,2.94,2.94,0,0,1-2.84-2.18l-2.48-9.27L38.88,46.14V64.89l6.79,6.78a3,3,0,0,1,0,4.17,3,3,0,0,1-4.17,0l-2.62-2.63v5.93a2.94,2.94,0,0,1-5.88,0V73.21l-2.63,2.63a2.95,2.95,0,0,1-4.17-4.17L33,64.89V46.14L16.75,55.51l-2.48,9.27A2.93,2.93,0,0,1,11.43,67a2.84,2.84,0,0,1-.76-.1,2.94,2.94,0,0,1-2.08-3.6l1-3.59-5.14,3a2.9,2.9,0,0,1-1.47.4,2.94,2.94,0,0,1-1.47-5.49l5.14-3L3,53.61a2.94,2.94,0,0,1,1.52-5.68l9.28,2.48L30.05,41,13.82,31.67,4.54,34.15a2.84,2.84,0,0,1-.76.1A2.95,2.95,0,0,1,3,28.46l3.59-1-5.14-3a2.94,2.94,0,1,1,2.94-5.1l5.14,3-1-3.59a2.94,2.94,0,0,1,5.68-1.53l2.48,9.28L33,35.94V17.19l-6.8-6.78a2.95,2.95,0,0,1,4.17-4.17L33,8.87V2.94a2.94,2.94,0,0,1,5.88,0V8.87L41.5,6.24a2.95,2.95,0,1,1,4.17,4.17l-6.79,6.78V35.94l16.24-9.37,2.48-9.28a2.94,2.94,0,0,1,5.68,1.53l-1,3.59,5.14-3a2.94,2.94,0,1,1,2.94,5.1l-5.14,3,3.59,1a2.94,2.94,0,0,1-.76,5.79,2.84,2.84,0,0,1-.76-.1l-9.28-2.48L41.82,41l16.23,9.37,9.28-2.48a2.94,2.94,0,1,1,1.52,5.68l-3.59,1,5.14,3A2.94,2.94,0,0,1,71.48,61.56Z"/></g></g></svg>