<svg xmlns="http://www.w3.org/2000/svg" viewBox="0 0 73.81 79.24"><defs><style>.cls-1{fill:#231f20;}</style></defs><g id="Layer_2" data-name="Layer 2"><g id="Layer_1-2" data-name="Layer 1"><path d="M58.28,32.84a8.87,8.87,0,0,0-2.56.38,50.51,50.51,0,0,0,.47-6.7l0-2.78H0l0,2.78c0,.74-.21,18.36,10,28.69A24.29,24.29,0,0,0,13.25,58H4a2.78,2.78,0,1,0,0,5.56H36.16l-1.1-7.86a21.86,21.86,0,0,1-7,1.06c-5.76,0-10.51-1.85-14.11-5.51-6.33-6.43-7.86-17-8.23-21.89H50.43a49.68,49.68,0,0,1-1.88,10.36c-.09.29-.18.59-.28.88l13.59,8.7a8.63,8.63,0,0,0-3.58-16.48Zm0,13.12a4.49,4.49,0,1,1,4.49-4.49A4.5,4.5,0,0,1,58.28,46Z"/><path d="M21,13.8c-.42,1.45-1,3.42-.49,3.93a1.32,1.32,0,0,1,0,1.87,1.35,1.35,0,0,1-.93.38,1.33,1.33,0,0,1-.94-.39c-1.6-1.61-.87-4.11-.17-6.53.61-2.11,1.25-4.29.25-5.28a1.32,1.32,0,1,1,1.87-1.87C22.71,8,21.77,11.22,21,13.8Z"/><path class="cls-1" d="M20.61,5.91a1.32,1.32,0,1,0-1.87,1.87c1,1,.36,3.17-.25,5.28-.7,2.42-1.43,4.92.17,6.53a1.33,1.33,0,0,0,.94.39,1.35,1.35,0,0,0,.93-.38,1.32,1.32,0,0,0,0-1.87c-.5-.51.07-2.48.49-3.93C21.77,11.22,22.71,8,20.61,5.91Z"/><path d="M38.65,13.8c-.42,1.45-1,3.42-.49,3.93a1.32,1.32,0,1,1-1.87,1.86c-1.6-1.61-.88-4.11-.17-6.53.61-2.11,1.24-4.29.25-5.28a1.32,1.32,0,0,1,1.86-1.87C40.33,8,39.4,11.22,38.65,13.8Z"/><path class="cls-1" d="M38.23,5.91a1.32,1.32,0,0,0-1.86,1.87c1,1,.36,3.17-.25,5.28-.71,2.42-1.43,4.92.17,6.53a1.32,1.32,0,1,0,1.87-1.86c-.5-.51.07-2.48.49-3.93C39.4,11.22,40.33,8,38.23,5.91Z"/><path d="M30,11.25c-.52,2.61-1.11,5.57-.36,6.67a1.31,1.31,0,0,1-.36,1.83,1.24,1.24,0,0,1-.73.23,1.32,1.32,0,0,1-1.1-.58c-1.36-2-.72-5.24,0-8.66.63-3.22,1.36-6.86.12-8.67A1.32,1.32,0,1,1,29.66.58C31.52,3.31,30.72,7.34,30,11.25Z"/><path class="cls-1" d="M30,11.25c-.52,2.61-1.11,5.57-.36,6.67a1.31,1.31,0,0,1-.36,1.83,1.24,1.24,0,0,1-.73.23,1.32,1.32,0,0,1-1.1-.58c-1.36-2-.72-5.24,0-8.66.63-3.22,1.36-6.86.12-8.67A1.32,1.32,0,1,1,29.66.58C31.52,3.31,30.72,7.34,30,11.25Z"/><path d="M72.69,56.08,55.63,45.18l-11-7.07-9.21-5.89a2.44,2.44,0,0,0-3.73,2.39l2.21,15.76.9,6.38,2.85,20.39A2.44,2.44,0,0,0,42,78.24l6.81-9.3L54.1,76a2.43,2.43,0,0,0,3.32.56c8.51-5.78,8.49-6,8.35-7.55A2.44,2.44,0,0,0,65,67.4c-.45-.53-2.11-2.76-4-5.34l10.72-1.51a2.44,2.44,0,0,0,1-4.47ZM56.31,57.79a2.46,2.46,0,0,0-1.89,1.46,2.42,2.42,0,0,0,.25,2.38c2.58,3.6,4.2,5.84,5.27,7.24-.92.66-2.1,1.5-3.33,2.36l-5.86-7.86a2.44,2.44,0,0,0-2-1h0a2.43,2.43,0,0,0-2,1l-5.22,7.12L39.69,56.75l-1.25-8.87-1.21-8.7,5.44,3.49,3.87,2.47,18,11.5Z"/></g></g></svg>