<svg xmlns="http://www.w3.org/2000/svg" viewBox="0 0 65.63 66"><g id="Layer_2" data-name="Layer 2"><g id="Layer_1-2" data-name="Layer 1"><path d="M61.22,9.25A17.11,17.11,0,0,0,37.06,8l-8.23,7.44L38,25.62l7-6.29a3.42,3.42,0,0,1,4.58,5.07l-7,6.29,5.08,5.61L29.77,52.46A14.92,14.92,0,0,0,8.43,37.64L22.27,2.7A2,2,0,0,0,21.9.65a1.89,1.89,0,0,0-.73-.51,2,2,0,0,0-2.56,1.11L1.1,45.43l0,.13L1,45.68A14.92,14.92,0,0,0,24.92,62.15L50.3,39.22l1.46,1.63L60,33.41A17.1,17.1,0,0,0,61.22,9.25Zm-38.94,50a11,11,0,1,1,.78-15.51,11,11,0,0,1-.78,15.51Z"/></g></g></svg>