<svg xmlns="http://www.w3.org/2000/svg" viewBox="0 0 136.4 63.82"><g id="Layer_2" data-name="Layer 2"><g id="Layer_1-2" data-name="Layer 1"><path d="M31.91,0A31.91,31.91,0,1,0,63.82,31.91,31.91,31.91,0,0,0,31.91,0Zm0,58.36A26.45,26.45,0,1,1,58.35,31.91,26.48,26.48,0,0,1,31.91,58.36Z"/><path d="M32,27.77c3.61,6.2,5.41,10.45,5.55,11.82a5.67,5.67,0,0,1-11.34.09c.08-.42.59-2.76,3.77-8.46C30.65,30.08,31.34,28.91,32,27.77Z"/><path d="M31.91,7.68c0,1.1-16.6,22.7-16.6,31.86a16.6,16.6,0,1,0,33.2,0C48.51,30.38,31.91,7.68,31.91,7.68Zm0,43A11.14,11.14,0,0,1,20.78,39.54c0-.7.32-3.57,4.46-11,2.17-3.88,4.74-7.86,6.85-11C37.94,26.41,43,35.92,43,39.54A11.14,11.14,0,0,1,31.91,50.68Z"/><path d="M37.58,39.59a5.67,5.67,0,0,1-11.34.09c.08-.42.59-2.76,3.77-8.46.64-1.14,1.33-2.31,2-3.45C35.64,34,37.44,38.22,37.58,39.59Z"/><path d="M37.58,39.59a5.67,5.67,0,0,1-11.34.09c.08-.42.59-2.76,3.77-8.46.64-1.14,1.33-2.31,2-3.45C35.64,34,37.44,38.22,37.58,39.59Z"/><path d="M119.44,41.7V34.56c-2.13,0-3.08.87-4.53,2.2-1.68,1.53-4,3.63-8.22,3.63s-6.54-2.1-8.22-3.63c-1.45-1.33-2.41-2.2-4.53-2.2s-3.09.87-4.53,2.2c-1.68,1.53-4,3.63-8.22,3.63s-6.55-2.1-8.22-3.63c-1.45-1.33-2.41-2.2-4.53-2.2V29.1c4.24,0,6.54,2.09,8.21,3.62,1.45,1.33,2.41,2.2,4.54,2.2s3.08-.87,4.53-2.2c1.68-1.53,4-3.62,8.22-3.62s6.54,2.09,8.22,3.62c1.44,1.33,2.4,2.2,4.53,2.2s3.08-.87,4.53-2.2c1.68-1.53,4-3.62,8.22-3.62v-7l17,9.79Z"/><path d="M119.44,19.58V12.44c-2.13,0-3.08.87-4.53,2.2-1.68,1.53-4,3.63-8.22,3.63s-6.54-2.1-8.22-3.63c-1.45-1.33-2.41-2.2-4.53-2.2s-3.09.87-4.53,2.2c-1.68,1.53-4,3.63-8.22,3.63s-6.55-2.1-8.22-3.63c-1.45-1.33-2.41-2.2-4.53-2.2V7c4.24,0,6.54,2.1,8.21,3.63,1.45,1.33,2.41,2.2,4.54,2.2s3.08-.87,4.53-2.2C87.4,9.07,89.69,7,93.94,7s6.54,2.1,8.22,3.63c1.44,1.33,2.4,2.2,4.53,2.2s3.08-.87,4.53-2.2c1.68-1.53,4-3.63,8.22-3.63V0l17,9.79Z"/><path d="M119.44,63.82V56.68c-2.13,0-3.08.88-4.53,2.2-1.68,1.53-4,3.63-8.22,3.63s-6.54-2.1-8.22-3.63c-1.45-1.32-2.41-2.2-4.53-2.2s-3.09.88-4.53,2.2c-1.68,1.53-4,3.63-8.22,3.63s-6.55-2.1-8.22-3.63c-1.45-1.32-2.41-2.2-4.53-2.2V51.22c4.24,0,6.54,2.1,8.21,3.63,1.45,1.32,2.41,2.2,4.54,2.2s3.08-.88,4.53-2.2c1.68-1.53,4-3.63,8.22-3.63s6.54,2.1,8.22,3.63c1.44,1.32,2.4,2.2,4.53,2.2s3.08-.88,4.53-2.2c1.68-1.53,4-3.63,8.22-3.63v-7l17,9.79Z"/></g></g></svg>