<?xml version="1.0" encoding="UTF-8"?>
<svg id="Layer_2" data-name="Layer 2" xmlns="http://www.w3.org/2000/svg" viewBox="0 0 58.58 75">
  <g id="Layer_1-2" data-name="Layer 1">
    <g>
      <path d="M57.32,34.01c-.9-.92-2.16-1.41-3.44-1.34l-15.54,.86,8.55-9.74c1.22-1.39,1.57-3.24,1.1-4.89-.25-1.13-.93-2.16-1.99-2.82-.03-.02-20.44-11.88-20.44-11.88-1.67-.97-3.77-.75-5.2,.53L10.39,13.63c-1.84,1.64-2,4.45-.36,6.29,1.64,1.84,4.46,2,6.29,.36l7.56-6.74,6.25,3.63-11.03,12.56c-4.57,.75-8.69,2.85-11.92,5.89l5.76,5.76c2.6-2.37,6.06-3.81,9.85-3.81,8.08,0,14.65,6.57,14.65,14.65,0,3.79-1.44,7.24-3.81,9.85l5.76,5.76c3.84-4.08,6.19-9.56,6.19-15.61,0-3.6-.84-7-2.32-10.03l6.01-.34-1.46,17.94c-.2,2.45,1.63,4.6,4.08,4.8,.12,0,.25,.01,.37,.01,2.3,0,4.25-1.76,4.44-4.09l1.88-23.04c.1-1.28-.35-2.55-1.25-3.47Z"/>
      <path d="M49.06,14.92c4.12,0,7.46-3.34,7.46-7.46s-3.34-7.46-7.46-7.46-7.46,3.34-7.46,7.46,3.34,7.46,7.46,7.46Z"/>
      <path d="M22.79,66.86c-8.08,0-14.65-6.57-14.65-14.65,0-3.04,.93-5.87,2.53-8.22l-5.82-5.82c-3.03,3.87-4.85,8.74-4.85,14.04,0,12.59,10.2,22.79,22.79,22.79,5.3,0,10.17-1.81,14.04-4.85l-5.82-5.82c-2.35,1.6-5.18,2.53-8.22,2.53Z"/>
    </g>
  </g>
</svg>