<svg xmlns="http://www.w3.org/2000/svg" viewBox="0 0 73.56 64.36"><g id="Layer_2" data-name="Layer 2"><g id="Layer_1-2" data-name="Layer 1"><path d="M10.75,36.6C6.57,37.6,2,34.37.47,29.4s.69-9.83,4.87-10.83,8.79,2.23,10.28,7.2S14.94,35.6,10.75,36.6ZM64.36,56.35c0,5-3.85,8-10.3,8-7,0-11.6-3.6-17.28-3.6s-10.26,3.6-17.28,3.6c-6.45,0-10.3-3-10.3-8,0-11.13,16.17-28.76,27.58-28.76S64.36,45.22,64.36,56.35ZM16.66,13.61C15,7.37,17.19,1.37,21.63.2s9.43,2.94,11.13,9.18-.52,12.24-5,13.41S18.36,19.85,16.66,13.61ZM40.8,9.38C42.5,3.14,47.48-1,51.93.2s6.67,7.17,5,13.41S50.21,24,45.77,22.79,39.1,15.61,40.8,9.38Zm32.29,20c-1.5,5-6.1,8.2-10.28,7.2s-6.37-5.85-4.87-10.82,6.1-8.21,10.28-7.21S74.58,24.42,73.09,29.4Z"/></g></g></svg>