<svg xmlns="http://www.w3.org/2000/svg" viewBox="0 0 89.74 76.99"><g id="Layer_2" data-name="Layer 2"><g id="Layer_1-2" data-name="Layer 1"><path d="M86,77H3.71a3.7,3.7,0,0,1-3-5.79l7.85-5.58V21.84a1.71,1.71,0,0,1,1.71-1.72H24.06v4.82h-10V63.26H75.88V24.94H65.38V20.12H79.7a1.72,1.72,0,0,1,1.72,1.72V65.65l7.69,5.58A3.7,3.7,0,0,1,86,77Z"/><path d="M60.41,14.91v13.5a7.39,7.39,0,0,1-.33,2.16c-1.75,5.66-9.77,9.33-9.77,11.83V53.47H39.4V42.4c0-2.5-8-6.17-9.77-11.83a7.39,7.39,0,0,1-.33-2.16V14.91h6.23v-12A2.9,2.9,0,0,1,38.43,0a2.84,2.84,0,0,1,2,.85,2.86,2.86,0,0,1,.85,2v12h7.29v-12a2.89,2.89,0,1,1,5.78,0v12Z"/></g></g></svg>