<svg xmlns="http://www.w3.org/2000/svg" viewBox="0 0 69.2 79.21"><g id="Layer_2" data-name="Layer 2"><g id="Layer_1-2" data-name="Layer 1"><path d="M23.67,59.94v1.31a1.06,1.06,0,0,1-1.06,1.06H18.7l2.67,12a2.76,2.76,0,0,1,.06.57,2.64,2.64,0,0,1-5.22.57L13.29,62.31H8.56L5.64,75.46A2.64,2.64,0,0,1,.42,74.9a2.86,2.86,0,0,1,.06-.58l2.67-12H1.64A1.06,1.06,0,0,1,.58,61.25v-2L0,38.49a2.64,2.64,0,0,1,2.57-2.71h.08a2.63,2.63,0,0,1,2.63,2.56L5.8,57h15A2.92,2.92,0,0,1,23.67,59.94Z"/><path d="M45.53,59.94v1.31a1.06,1.06,0,0,0,1.06,1.06H50.5l-2.67,12a2.76,2.76,0,0,0-.06.57,2.64,2.64,0,0,0,5.22.57l2.92-13.15h4.73l2.92,13.15a2.64,2.64,0,0,0,5.22-.56,2.86,2.86,0,0,0-.06-.58l-2.67-12h1.51a1.06,1.06,0,0,0,1.06-1.06v-2l.58-20.78a2.64,2.64,0,0,0-2.57-2.71h-.07a2.63,2.63,0,0,0-2.64,2.56L63.4,57H48.45A2.92,2.92,0,0,0,45.53,59.94Z"/><path d="M67,19.41l-.29-.17L35.62.2a1.36,1.36,0,0,0-1.43,0l-31.06,19-.29.17a2.64,2.64,0,0,0,1.52,4.8H14.77a2.71,2.71,0,0,0,2.75-2.45,2.63,2.63,0,0,0-2.63-2.83H13.74l14.61-9s0,0,0,0l-7.45,9.93a2.64,2.64,0,0,0,.5,3.69h0a2.56,2.56,0,0,0,1.64.58h9V44.66H13.85a2.47,2.47,0,0,0-2.47,2.46v2.47H16v2.46H32.14v24.7a2.47,2.47,0,0,0,2.47,2.46H35a2.47,2.47,0,0,0,2.47-2.46V52.05H53.57V49.59h4.61V47.12a2.46,2.46,0,0,0-2.46-2.46H37.43V24.21h9.28a2.61,2.61,0,0,0,1.65-.58h0a2.64,2.64,0,0,0,.5-3.69L41.44,10s0,0,0,0l14.61,9H54.92a2.63,2.63,0,0,0-2.63,2.83A2.71,2.71,0,0,0,55,24.21H65.45A2.64,2.64,0,0,0,67,19.41ZM41.52,18.9a0,0,0,0,1,0,0H28.3a0,0,0,0,1,0,0l6.6-8.79h0Z"/></g></g></svg>