<svg xmlns="http://www.w3.org/2000/svg" viewBox="0 0 80.9 63.82"><g id="Layer_2" data-name="Layer 2"><g id="Layer_1-2" data-name="Layer 1"><path d="M80.9,16.84l-5.65,5.69C65.52,13.09,54,8.08,40.44,8.08s-25.09,5-34.74,14.36L0,16.76c1-.91,2-1.85,3-2.76A56.62,56.62,0,0,1,20.82,3.48a55.47,55.47,0,0,1,13-3.09A57,57,0,0,1,80,16c.29.28.6.53.9.79Z"/><path d="M39.74,63.82a16.56,16.56,0,0,1-2.1-.67,6.47,6.47,0,1,1,3.78.59l-.22.08Z"/><path d="M17.05,33.86,11.4,28.23c14.92-15.67,41.88-16.63,58.06,0L63.8,33.85a32.56,32.56,0,0,0-23.38-9.68A32.56,32.56,0,0,0,17.05,33.86Z"/><path d="M22.81,39.53a24.82,24.82,0,0,1,35.26,0l-5.68,5.66a16.9,16.9,0,0,0-23.9,0Z"/></g></g></svg>