<svg xmlns="http://www.w3.org/2000/svg" viewBox="0 0 73.72 73.71"><g id="Layer_2" data-name="Layer 2"><g id="Layer_1-2" data-name="Layer 1"><path d="M36.86,0A36.86,36.86,0,1,0,73.72,36.85,36.9,36.9,0,0,0,36.86,0Zm0,68.43A31.58,31.58,0,1,1,68.44,36.85,31.61,31.61,0,0,1,36.86,68.43Z"/><path d="M57.38,17a2.14,2.14,0,0,0-3.63-1.28c-5.57,5.54-10.35,6.43-15.41,7.37-5.94,1.1-12.08,2.24-18.63,10.78A17.33,17.33,0,0,0,47.21,55C59.61,38.8,57.48,17.9,57.38,17ZM41.45,40.14a29.59,29.59,0,0,0,5.17-2.37,2.56,2.56,0,0,0,1.2-1.93,2.64,2.64,0,0,0-4-2.51,25.65,25.65,0,0,1-4.23,1.88c-5.57,2.14-13.14,5.06-15.95,17a12.52,12.52,0,0,1-.1-15.41c5.43-7.09,10.19-8,15.73-9,4.05-.75,8.61-1.6,13.54-5-.17,7-1.7,19.31-9.35,29.29a12.58,12.58,0,0,1-15.16,3.79C30,44.54,35.81,42.3,41.45,40.14Z"/></g></g></svg>