<svg xmlns="http://www.w3.org/2000/svg" viewBox="0 0 673.62 437.54"><defs><style>.cls-1{fill:#FFF;}.cls-2{fill:none;}</style></defs><g id="Layer_2" data-name="Layer 2"><g id="Layer_1-2" data-name="Layer 1"><path class="cls-1" d="M96.12,421.94A14,14,0,0,0,104,424c4.4,0,8-2.25,8-7.31,0-7-16.36-7.88-16.36-17.24,0-5.72,5-9.3,11.3-9.3a21.32,21.32,0,0,1,7,1.17l-.57,3.22a14.64,14.64,0,0,0-6.49-1.33c-3.68,0-7.72,1.54-7.72,6.14,0,7.16,16.36,7.21,16.36,17.65,0,7.21-6.19,10.07-11.71,10.07a20.52,20.52,0,0,1-8.08-1.53Z"/><path class="cls-1" d="M122,400.41h3.23l-.21,4.76h.1c.82-1.43,2.82-5.37,8.34-5.37,7.67,0,10.74,5.73,10.74,13.65,0,7.73-3.58,13.66-10.74,13.66-4.09,0-6.55-1.69-8.13-5.06h-.1v15.18H122Zm11,2.15c-5.73,0-7.72,6.14-7.72,10.89s2,10.9,7.72,10.9c6.14,0,7.72-5.83,7.72-10.9S139.08,402.56,132.94,402.56Z"/><path class="cls-1" d="M168.23,425.68a21.4,21.4,0,0,1-7.57,1.43c-8.64,0-11.87-5.83-11.87-13.66s4.4-13.65,11-13.65c7.36,0,10.38,5.93,10.38,12.94v1.64H152.32c0,5.52,3,10,8.59,10a16.69,16.69,0,0,0,7.32-2Zm-1.59-14.07c0-4.55-1.84-9.05-6.65-9.05s-7.67,4.76-7.67,9.05Z"/><path class="cls-1" d="M193.29,403.89a15,15,0,0,0-5.58-1.33c-6.29,0-9.82,4.55-9.82,10.89,0,5.94,3.58,10.9,9.46,10.9a16.61,16.61,0,0,0,5.88-1.18l.31,3a19.24,19.24,0,0,1-6.7.92c-8.39,0-12.48-6.39-12.48-13.66,0-8,5.17-13.65,12.89-13.65a19.71,19.71,0,0,1,6.29,1Z"/><path class="cls-1" d="M202.23,393.46H199v-4.3h3.22Zm-3.22,7h3.22V426.5H199Z"/><path class="cls-1" d="M225.35,422.3h-.1c-1.43,3.12-5.07,4.81-8.29,4.81-7.41,0-8.59-5-8.59-7.36,0-8.75,9.31-9.16,16.06-9.16H225v-1.33c0-4.45-1.58-6.7-5.93-6.7a13.88,13.88,0,0,0-7.67,2.15v-3.12a20.56,20.56,0,0,1,7.67-1.79c6.44,0,9.15,2.92,9.15,9.72V421a36.55,36.55,0,0,0,.26,5.48h-3.17Zm-.31-8.95h-.92c-5.57,0-12.22.57-12.22,6.29,0,3.43,2.45,4.71,5.42,4.71,7.57,0,7.72-6.6,7.72-9.41Z"/><path class="cls-1" d="M235.94,388.14h3.22V426.5h-3.22Z"/><path class="cls-1" d="M250.51,393.46h-3.22v-4.3h3.22Zm-3.22,7h3.22V426.5h-3.22Z"/><path class="cls-1" d="M269.89,403.18H264v16.87c0,2.35.87,4.3,3.48,4.3a7.42,7.42,0,0,0,3-.62l.21,2.66a11.68,11.68,0,0,1-3.94.72c-5.73,0-5.93-3.94-5.93-8.69V403.18h-5.12v-2.77h5.12v-6.29L264,393v7.41h5.93Z"/><path class="cls-1" d="M282.93,422.15H283l7.52-21.74h3.38l-10.44,30c-1.22,3.58-3.06,7.16-6.69,7.16a15.14,15.14,0,0,1-3.48-.41l.3-2.76a6.51,6.51,0,0,0,2.41.41c2.76,0,3.68-2.3,4.7-5.68l.67-2.3-9.26-26.39h3.53Z"/><path class="cls-1" d="M337.45,394.79a18.45,18.45,0,0,0-8-1.54c-9.26,0-14.47,6.55-14.47,15.4,0,9,5.06,15.39,14.47,15.39,2.35,0,5.93-.31,8-1.53l.2,3.07c-1.94,1.17-5.93,1.53-8.18,1.53-11.25,0-18-7.42-18-18.46,0-10.84,6.95-18.46,18-18.46,2.1,0,6.34.35,8.18,1.33Z"/><path class="cls-1" d="M356.88,399.8c8.44,0,12.17,6.55,12.17,13.65s-3.73,13.66-12.17,13.66-12.17-6.55-12.17-13.66S348.44,399.8,356.88,399.8Zm0,24.55c5.63,0,8.64-4.86,8.64-10.9s-3-10.89-8.64-10.89-8.64,4.86-8.64,10.89S351.26,424.35,356.88,424.35Z"/><path class="cls-1" d="M377.34,403.18h-5.27v-2.77h5.27v-1.89c0-5.47.2-11,6.9-11a7.38,7.38,0,0,1,3,.51l-.2,2.81a5.71,5.71,0,0,0-2.56-.56c-4.4,0-3.94,4.75-3.94,7.87v2.25h5.88v2.77h-5.88V426.5h-3.22Z"/><path class="cls-1" d="M393.45,403.18h-5.27v-2.77h5.27v-1.89c0-5.47.2-11,6.9-11a7.38,7.38,0,0,1,3,.51l-.21,2.81a5.64,5.64,0,0,0-2.55-.56c-4.4,0-3.94,4.75-3.94,7.87v2.25h5.88v2.77h-5.88V426.5h-3.22Z"/><path class="cls-1" d="M425.77,425.68a21.4,21.4,0,0,1-7.57,1.43c-8.64,0-11.86-5.83-11.86-13.66s4.39-13.65,11-13.65c7.37,0,10.38,5.93,10.38,12.94v1.64H409.87c0,5.52,3,10,8.59,10a16.64,16.64,0,0,0,7.31-2Zm-1.59-14.07c0-4.55-1.84-9.05-6.65-9.05s-7.66,4.76-7.66,9.05Z"/><path class="cls-1" d="M451.34,425.68a21.4,21.4,0,0,1-7.57,1.43c-8.64,0-11.86-5.83-11.86-13.66s4.39-13.65,11-13.65c7.37,0,10.38,5.93,10.38,12.94v1.64H435.44c0,5.52,3,10,8.59,10a16.64,16.64,0,0,0,7.31-2Zm-1.59-14.07c0-4.55-1.84-9.05-6.64-9.05s-7.67,4.76-7.67,9.05Z"/><path class="cls-1" d="M473,421.94a14.06,14.06,0,0,0,7.88,2.1c4.4,0,8-2.25,8-7.31,0-7-16.37-7.88-16.37-17.24,0-5.72,5-9.3,11.3-9.3a21.28,21.28,0,0,1,7,1.17l-.56,3.22a14.69,14.69,0,0,0-6.5-1.33c-3.68,0-7.72,1.54-7.72,6.14,0,7.16,16.37,7.21,16.37,17.65,0,7.21-6.19,10.07-11.71,10.07a20.52,20.52,0,0,1-8.08-1.53Z"/><path class="cls-1" d="M499.21,388.14h3.22v16.67h.1a8.85,8.85,0,0,1,8.13-5c7,0,8.9,4.65,8.9,11.1v15.6h-3.22V411c0-4.5-.87-8.39-6.19-8.39-5.73,0-7.72,5.42-7.72,10v14h-3.22Z"/><path class="cls-1" d="M537.82,399.8c8.44,0,12.17,6.55,12.17,13.65s-3.73,13.66-12.17,13.66-12.17-6.55-12.17-13.66S529.38,399.8,537.82,399.8Zm0,24.55c5.62,0,8.64-4.86,8.64-10.9s-3-10.89-8.64-10.89-8.64,4.86-8.64,10.89S532.19,424.35,537.82,424.35Z"/><path class="cls-1" d="M555.77,400.41H559l-.2,4.76h.1c.82-1.43,2.81-5.37,8.34-5.37,7.67,0,10.74,5.73,10.74,13.65,0,7.73-3.58,13.66-10.74,13.66-4.1,0-6.55-1.69-8.13-5.06H559v15.18h-3.22Zm10.94,2.15c-5.72,0-7.72,6.14-7.72,10.89s2,10.9,7.72,10.9c6.14,0,7.73-5.83,7.73-10.9S572.85,402.56,566.71,402.56Z"/><path class="cls-1" d="M469.11,85.16c24.53-36.27,8.6-69.11-2.37-84.79-48.08,3.72-76,35.37-76,90.78,0,60.1,31.7,91.15,85.79,91.15.75,0,1.49,0,2.24,0C466,164.22,443.4,123.18,469.11,85.16Z"/><path class="cls-1" d="M563,91.15C563,32.07,530.65,0,476.57,0c-2.32,0-4.58.08-6.82.2,17,16.58,45.44,52.5,20.38,89.54-25.33,37.47-15.3,75.33-8.39,92.46C532.71,180.26,563,149.3,563,91.15Z"/><path class="cls-1" d="M195,7H302.58c29.65,0,58.81,9.55,58.81,42.15,0,23.52-12.49,36-35.28,41.9v.49c23.77,3.19,38.47,21.81,38.47,39,0,43.13-34.8,47.54-70.33,47.54H195Zm61.75,65.43h16.42c11.52,0,24-3.43,24-16.42,0-12.74-10.78-16.67-22.55-16.67H256.75Zm0,70.33h17.16c12,0,25-4.41,25-17.64,0-14.71-12.25-17.4-24.5-17.4H256.75Z"/><path class="cls-1" d="M518.72,285.44l57.34-83.32H507L479.5,252.61,454,202.12h-138l-27.45,50.49-25.49-50.49H187.4l53.91,83.32-61.26,87.74h71.31l29.9-57.84,32.1,57.84H442.25l29.9-57.84,32.11,57.84h76.21Zm-138.5,74.45-52.4-74.45,53.8-78.17,50.59,78.17Z"/><path class="cls-1" d="M160.64,337.52c0,19.37-13.52,35.52-33.51,35.52-19.83,0-36.28-15.22-36.28-35.36,0-10.46,4.92-26.3,17.83-26.3,4.77,0,9.69,3.69,9.69,8.77,0,4-2.46,10-7.23,10-5.07,0-5.38-5.38-8.15-5.38-5.23,0-6.15,9.84-6.15,13.38A20,20,0,0,0,99.46,348c3.69,6.15,8.45,7.53,15.37,7.53s22.14-.46,28.6-2.61c7.22-2.31,11.37-10.3,11.37-17.53,0-5.23-4.61-11.38-8.3-14.76-3.23-3.08-6.92-4.15-11.22-4.77.77-1.07,1.23-4.76,1.54-6.3C152.19,311.85,160.64,322.15,160.64,337.52Z"/><path class="cls-1" d="M160.64,268c0,20.45-16,39.05-37,39.05-19.37,0-32.74-17.37-32.74-35.82,0-18.91,16.91-35.82,35.82-35.82C144,235.44,160.64,250.2,160.64,268Zm-48.88-14.29c-10,2.92-15.07,7.84-15.07,18.6v.46c0,9.53,8.92,17.22,18.14,17.22,2.92,0,6-.31,8.92-.46,14.76-1.08,31.05-1.23,31.05-20.76,0-15.53-13.68-17.06-26.13-17.06A62,62,0,0,0,111.76,253.74Z"/><path class="cls-1" d="M72.24,178.56c0,3.38-1.84,7.38-5.69,7.38-2,0-4-1.38-5.53-1.38-2.77,0-3.23,6.61-3.23,8.45,0,6.92,3.38,9.07,9.69,9.84a111.32,111.32,0,0,0,14.45.77A82.61,82.61,0,0,0,92.69,203c.46-4.76.31-9.22.31-14a7.83,7.83,0,0,1,.46-3.22c1.69.3,4.61.61,6.3.76-.92,3.39-.46,7.38-.46,10.92,0,.77-.15,1.69-.15,2.46,0,1.08.15,2,.15,3.07,10.46,0,20.76.16,31.21.31h12.92a54.29,54.29,0,0,0,8.61-.61c1.23-2.46,1.23-11.38.92-14.46h7.22c-1.38,5.85-1.53,12.46-1.53,18.45s.92,11.84.92,17.68a30.68,30.68,0,0,1-.62,6.46c-1.69-.61-4.61-.46-6.45-.46.46-2.31.15-4.46.15-6.76,0-1.7.31-3.54.31-5.23h-1.69c-6.61,0-13.22.46-19.84.46-7.53,0-15.06-.62-22.6-.62-3.07,0-6,.16-9.07.16a29.08,29.08,0,0,0-.46,6.3,35,35,0,0,0,.46,6.92,19.37,19.37,0,0,1-4.3.31h-2a3.71,3.71,0,0,1-.77-2.15,14.52,14.52,0,0,1,.31-2.62,68.86,68.86,0,0,0,.31-8v-.62c-11.23-.77-23.37-.15-32.29-8.3-5.84-5.38-8.92-11.84-8.92-19.83,0-7.07,3.08-19.68,12.15-19.68C68.86,170.72,72.24,173.79,72.24,178.56Z"/><path class="cls-1" d="M72.24,132.44c0,3.38-1.84,7.38-5.69,7.38-2,0-4-1.38-5.53-1.38-2.77,0-3.23,6.61-3.23,8.45,0,6.92,3.38,9.07,9.69,9.84a111.32,111.32,0,0,0,14.45.77,84.39,84.39,0,0,0,10.76-.61c.46-4.77.31-9.23.31-14a7.83,7.83,0,0,1,.46-3.22c1.69.3,4.61.61,6.3.76-.92,3.39-.46,7.38-.46,10.92,0,.77-.15,1.69-.15,2.46,0,1.08.15,2,.15,3.08,10.46,0,20.76.15,31.21.3h12.92a54.29,54.29,0,0,0,8.61-.61c1.23-2.46,1.23-11.38.92-14.45h7.22c-1.38,5.84-1.53,12.45-1.53,18.44s.92,11.84.92,17.69a30.65,30.65,0,0,1-.62,6.45c-1.69-.61-4.61-.46-6.45-.46.46-2.3.15-4.46.15-6.76,0-1.69.31-3.54.31-5.23h-1.69c-6.61,0-13.22.46-19.84.46-7.53,0-15.06-.61-22.6-.61-3.07,0-6,.15-9.07.15a29.08,29.08,0,0,0-.46,6.3,35,35,0,0,0,.46,6.92,19.37,19.37,0,0,1-4.3.31h-2a3.69,3.69,0,0,1-.77-2.15A14.63,14.63,0,0,1,93,181a68.86,68.86,0,0,0,.31-8v-.62c-11.23-.77-23.37-.15-32.29-8.3-5.84-5.38-8.92-11.84-8.92-19.83,0-7.07,3.08-19.68,12.15-19.68C68.86,124.6,72.24,127.67,72.24,132.44Z"/><path class="cls-1" d="M124.36,86.47v4.15c0,6.62-.31,13.23-.31,19.84,0,4.3.16,8.61.47,12.76a45.66,45.66,0,0,0,8,.46c11.38,0,22.29-7.53,22.29-19.68,0-5.69-2.15-12-6.45-15.84-1.54-1.38-3.39-2.61-5.08-3.84a27.28,27.28,0,0,0-4.61-2.61,24.34,24.34,0,0,1,4.3-5.38c9.84,5.84,17.68,13.37,17.68,25.67,0,11.22-3.07,20-11.53,27.67-6.45,5.85-15.22,10.61-24,10.61-7.53,0-16.14-4-22.14-8.45a30.24,30.24,0,0,1-12.14-24.76C90.85,96.47,95,88,103.3,81.4a26.49,26.49,0,0,1,4.3-2.92c4.31-2.15,11.07-3.23,15.84-3.38C123.44,78.94,124.36,82.63,124.36,86.47ZM113.6,90.78c-5.23.46-6.3.61-10.45,3.84-4.77,3.54-6.62,7.07-6.62,13.22,0,13.23,10.92,14.15,21.22,14.92V111.84c0-2.15.31-4.46.31-6.61a92.1,92.1,0,0,0-1.39-14.61A19.81,19.81,0,0,0,113.6,90.78Z"/><path class="cls-1" d="M124.36,18.37v4.15c0,6.61-.31,13.22-.31,19.83,0,4.31.16,8.61.47,12.76a45.66,45.66,0,0,0,8,.46c11.38,0,22.29-7.53,22.29-19.67,0-5.69-2.15-12-6.45-15.84-1.54-1.38-3.39-2.61-5.08-3.84a27.34,27.34,0,0,0-4.61-2.62A24.58,24.58,0,0,1,143,8.22c9.84,5.84,17.68,13.38,17.68,25.68,0,11.22-3.07,20-11.53,27.67-6.45,5.84-15.22,10.61-24,10.61-7.53,0-16.14-4-22.14-8.46A30.22,30.22,0,0,1,90.85,39c0-10.61,4.15-19.06,12.45-25.68a27.15,27.15,0,0,1,4.3-2.92c4.31-2.15,11.07-3.22,15.84-3.38C123.44,10.84,124.36,14.52,124.36,18.37Zm-10.76,4.3c-5.23.46-6.3.62-10.45,3.85-4.77,3.53-6.62,7.07-6.62,13.22,0,13.22,10.92,14.14,21.22,14.91V43.74c0-2.16.31-4.46.31-6.61a92.1,92.1,0,0,0-1.39-14.61A21.12,21.12,0,0,0,113.6,22.67Z"/><path class="cls-1" d="M49.41,156.82a33.07,33.07,0,0,0-23.9-12.49,46.9,46.9,0,0,1-21.75-7.2c-1-.61-2-1.08-3.76-2A74.58,74.58,0,0,0,8.6,164c4.08,7.42,10.53,11.83,18.25,14.68,6.62,3.55,12.81,2,18.84-1.55l3-1.63c-2.81-.52-4.72-1.2-6.63-1.18-8,.08-13.7-4.05-18.33-10.07a10.78,10.78,0,0,1-1.08-2.6l2.68-.2,6.83,4.36c5.48,3.44,11.67,2.8,17.69,2.8.8,0,2.4-1.94,2.25-2.71A83.94,83.94,0,0,0,49.41,156.82Zm.58,9.69a4.31,4.31,0,0,1,.25.87h0A4.31,4.31,0,0,0,50,166.51Z"/><rect class="cls-2" width="673.62" height="437.54"/></g></g></svg>